<?xml version="1.0" encoding="utf-8"?><svg version="1.1" id="Layer_1" xmlns="http://www.w3.org/2000/svg" xmlns:xlink="http://www.w3.org/1999/xlink" x="0px" y="0px" viewBox="0 0 122.88 122.88" style="enable-background:new 0 0 122.88 122.88" xml:space="preserve"><style type="text/css">.st0{fill-rule:evenodd;clip-rule:evenodd;}</style><g><path class="st0" d="M61.44,0c9.75,0,18.96,2.27,27.15,6.31c-2.61,2.27-4.78,5.04-6.36,8.16c-6.36-2.82-13.39-4.39-20.79-4.39 c-28.36,0-51.35,22.99-51.35,51.35c0,28.36,22.99,51.35,51.35,51.35c28.36,0,51.35-22.99,51.35-51.35c0-2.89-0.24-5.72-0.7-8.48 c3.46-0.76,6.67-2.19,9.49-4.14c0.85,4.07,1.3,8.29,1.3,12.62c0,33.93-27.51,61.44-61.44,61.44S0,95.37,0,61.44S27.51,0,61.44,0 L61.44,0z M111.04,22.13h10.28v8.71h-10.28v11.78h-9.5V30.83H91.23v-8.71h10.31V10.67h9.5V22.13L111.04,22.13z M67.58,59.6 c-1.95-1.03-3.37-2.2-4.26-3.48c-1.22-1.75-1.83-3.76-1.83-6.03c0-3.74,1.76-6.8,5.28-9.19c2.75-1.82,6.38-2.74,10.9-2.74 c5.99,0,10.4,1.14,13.27,3.42c2.86,2.27,4.29,5.14,4.29,8.59c0,2.02-0.57,3.89-1.72,5.64c-0.86,1.3-2.21,2.56-4.05,3.78 c2.42,1.16,4.23,2.7,5.42,4.6c1.2,1.92,1.79,4.03,1.79,6.35c0,2.24-0.51,4.32-1.54,6.27c-1.03,1.95-2.29,3.45-3.78,4.5 c-1.5,1.06-3.36,1.83-5.58,2.33c-2.23,0.5-4.6,0.75-7.13,0.75c-4.74,0-8.35-0.56-10.86-1.68c-2.5-1.12-4.39-2.77-5.7-4.95 c-1.3-2.18-1.96-4.6-1.96-7.29c0-2.62,0.61-4.84,1.83-6.67C63.17,62,65.04,60.6,67.58,59.6L67.58,59.6z M73.18,50.82 c0,1.54,0.49,2.79,1.46,3.74c0.97,0.95,2.26,1.42,3.88,1.42c1.43,0,2.6-0.47,3.52-1.41c0.93-0.94,1.38-2.15,1.38-3.62 c0-1.55-0.48-2.8-1.44-3.77c-0.97-0.97-2.2-1.45-3.69-1.45c-1.51,0-2.75,0.47-3.7,1.42C73.65,48.09,73.18,49.32,73.18,50.82 L73.18,50.82z M72.49,70.06c0,1.98,0.6,3.58,1.8,4.84c1.2,1.25,2.57,1.87,4.11,1.87c1.49,0,2.82-0.64,4-1.91 c1.18-1.27,1.77-2.88,1.77-4.84c0-1.98-0.59-3.59-1.78-4.85c-1.2-1.26-2.57-1.89-4.13-1.89c-1.55,0-2.9,0.61-4.04,1.83 C73.06,66.33,72.49,67.99,72.49,70.06L72.49,70.06z M51.83,38.16v45.49H39.27V53.89c-2.03,1.54-4,2.78-5.9,3.73 c-1.91,0.95-4.29,1.86-7.15,2.73V50.22c4.23-1.37,7.52-3.02,9.85-4.94c2.34-1.93,4.18-4.3,5.5-7.12H51.83L51.83,38.16z"/></g></svg>