<svg xmlns="http://www.w3.org/2000/svg" shape-rendering="geometricPrecision" text-rendering="geometricPrecision" image-rendering="optimizeQuality" fill-rule="evenodd" clip-rule="evenodd" viewBox="0 0 512 472.403"><path fill-rule="nonzero" d="M144.317 85.269h223.368c15.381 0 29.391 6.325 39.567 16.494l.025-.024c10.163 10.164 16.477 24.193 16.477 39.599v189.728c0 15.401-6.326 29.425-16.485 39.584-10.159 10.159-24.183 16.484-39.584 16.484H144.317c-15.4 0-29.437-6.313-39.601-16.476-10.152-10.152-16.47-24.167-16.47-39.592V141.338c0-15.374 6.306-29.379 16.463-39.558l.078-.078c10.178-10.139 24.168-16.433 39.53-16.433zm59.98 204.329h-39.825l30.577-117.964h58.32l30.577 117.964h-39.825l-3.051-18.686h-33.725l-3.048 18.686zm15.645-81.726l-5.801 33.032h19.945l-5.61-33.032h-8.534zm74.007 81.726V171.634h37.749v117.964h-37.749zm161.348-35.797v30.763c0 3.165 2.587 5.751 5.752 5.751h45.199c3.165 0 5.752-2.586 5.752-5.751v-30.763c0-3.165-2.587-5.752-5.752-5.752h-45.199c-3.165 0-5.752 2.587-5.752 5.752zm0-70.639v30.762c0 3.163 2.587 5.752 5.752 5.752h45.199c3.165 0 5.752-2.589 5.752-5.752v-30.762c0-3.168-2.587-5.752-5.752-5.752h-45.199c-3.165 0-5.752 2.584-5.752 5.752zm0 141.278v30.763c0 3.165 2.587 5.752 5.752 5.752h45.199c3.165 0 5.752-2.587 5.752-5.752V324.44c0-3.165-2.587-5.751-5.752-5.751h-45.199c-3.165 0-5.752 2.586-5.752 5.751zm0-211.92v30.763c0 3.164 2.587 5.751 5.752 5.751h45.199c3.165 0 5.752-2.587 5.752-5.751V112.52c0-3.165-2.587-5.752-5.752-5.752h-45.199c-3.165 0-5.752 2.587-5.752 5.752zM56.703 253.801v30.763c0 3.165-2.587 5.751-5.752 5.751H5.752c-3.165 0-5.752-2.586-5.752-5.751v-30.763c0-3.165 2.587-5.752 5.752-5.752h45.199c3.165 0 5.752 2.587 5.752 5.752zm0-70.639v30.762c0 3.163-2.587 5.752-5.752 5.752H5.752c-3.165 0-5.752-2.589-5.752-5.752v-30.762c0-3.168 2.587-5.752 5.752-5.752h45.199c3.165 0 5.752 2.584 5.752 5.752zm0 141.278v30.763c0 3.165-2.587 5.752-5.752 5.752H5.752c-3.165 0-5.752-2.587-5.752-5.752V324.44c0-3.165 2.587-5.751 5.752-5.751h45.199c3.165 0 5.752 2.586 5.752 5.751zm0-211.92v30.763c0 3.164-2.587 5.751-5.752 5.751H5.752c-3.165 0-5.752-2.587-5.752-5.751V112.52c0-3.165 2.587-5.752 5.752-5.752h45.199c3.165 0 5.752 2.587 5.752 5.752zM346.579 415.7h30.763c3.162 0 5.751 2.587 5.751 5.752v45.199c0 3.165-2.589 5.752-5.751 5.752h-30.763c-3.167 0-5.752-2.587-5.752-5.752v-45.199c0-3.165 2.585-5.752 5.752-5.752zm-70.642 0H306.7c3.165 0 5.751 2.587 5.751 5.752v45.199c0 3.165-2.586 5.752-5.751 5.752h-30.763c-3.165 0-5.752-2.587-5.752-5.752v-45.199c0-3.165 2.587-5.752 5.752-5.752zm-70.639 0h30.762c3.165 0 5.752 2.587 5.752 5.752v45.199c0 3.165-2.587 5.752-5.752 5.752h-30.762c-3.165 0-5.752-2.587-5.752-5.752v-45.199c0-3.165 2.587-5.752 5.752-5.752zm-70.64 0h30.763c3.165 0 5.752 2.587 5.752 5.752v45.199c0 3.165-2.587 5.752-5.752 5.752h-30.763c-3.165 0-5.751-2.587-5.751-5.752v-45.199c0-3.165 2.586-5.752 5.751-5.752zM346.579 0h30.763c3.162 0 5.751 2.587 5.751 5.752v45.199c0 3.165-2.589 5.752-5.751 5.752h-30.763c-3.167 0-5.752-2.587-5.752-5.752V5.752c0-3.165 2.585-5.752 5.752-5.752zm-70.642 0H306.7c3.165 0 5.751 2.587 5.751 5.752v45.199c0 3.165-2.586 5.752-5.751 5.752h-30.763c-3.165 0-5.752-2.587-5.752-5.752V5.752c0-3.165 2.587-5.752 5.752-5.752zm-70.639 0h30.762c3.165 0 5.752 2.587 5.752 5.752v45.199c0 3.165-2.587 5.752-5.752 5.752h-30.762c-3.165 0-5.752-2.587-5.752-5.752V5.752c0-3.165 2.587-5.752 5.752-5.752zm-70.64 0h30.763c3.165 0 5.752 2.587 5.752 5.752v45.199c0 3.165-2.587 5.752-5.752 5.752h-30.763c-3.165 0-5.751-2.587-5.751-5.752V5.752c0-3.165 2.586-5.752 5.751-5.752zm233.027 111.097H144.317a30.11 30.11 0 00-21.35 8.844l-.049.049a30.117 30.117 0 00-8.844 21.348v189.728c0 8.292 3.414 15.847 8.9 21.333 5.494 5.493 13.058 8.907 21.343 8.907h223.368c8.273 0 15.833-3.421 21.326-8.914s8.915-13.053 8.915-21.326V141.338c0-8.283-3.414-15.848-8.908-21.341v-.049c-5.454-5.456-13.006-8.851-21.333-8.851z"/></svg>