<svg id="Layer_1" data-name="Layer 1" xmlns="http://www.w3.org/2000/svg" viewBox="0 0 122.88 119.39"><title>chat-box</title><path d="M15.33,0H87.84a15.36,15.36,0,0,1,15.33,15.33V59.38A15.36,15.36,0,0,1,87.84,74.71h-46l-23.28,20a2.58,2.58,0,0,1-3.64-.29,2.54,2.54,0,0,1-.61-1.84L15.53,74.7h-.2A15.36,15.36,0,0,1,0,59.38V15.33A15.36,15.36,0,0,1,15.33,0Zm95.36,32.33a15.09,15.09,0,0,1,12.19,14.75V83.74a15.07,15.07,0,0,1-15,15h-.54L108.59,117h0a2.27,2.27,0,0,1-3.73,1.87L81.49,98.17H31.2L46.36,82.75H98A12.78,12.78,0,0,0,110.73,70V33.34c0-.34,0-.68,0-1ZM30.42,47.58a2.59,2.59,0,1,1,0-5.17h34a2.59,2.59,0,1,1,0,5.17Zm0-17.73a2.59,2.59,0,1,1,0-5.17H75.71a2.59,2.59,0,1,1,0,5.17ZM87.83,5.17H15.33A10.17,10.17,0,0,0,5.17,15.33V59.38A10.19,10.19,0,0,0,15.33,69.54h3.15a2.58,2.58,0,0,1,2.39,2.74l-1,14.49,19.19-16.5a2.6,2.6,0,0,1,1.82-.75H87.83A10.21,10.21,0,0,0,98,59.38V15.33A10.19,10.19,0,0,0,87.83,5.17Z"/></svg>