<?xml version="1.0" encoding="utf-8"?><svg version="1.1" id="Layer_1" xmlns="http://www.w3.org/2000/svg" xmlns:xlink="http://www.w3.org/1999/xlink" x="0px" y="0px" width="122.88px" height="122.88px" viewBox="0 0 122.88 122.88" enable-background="new 0 0 122.88 122.88" xml:space="preserve"><g><path fill-rule="evenodd" clip-rule="evenodd" d="M61.438,0c33.938,0,61.442,27.509,61.442,61.442S95.375,122.88,61.438,122.88 C27.509,122.88,0,95.376,0,61.442S27.509,0,61.438,0L61.438,0z M61.442,43.027c10.17,0,18.413,8.245,18.413,18.416 c0,10.17-8.243,18.413-18.413,18.413c-10.171,0-18.416-8.243-18.416-18.413C43.026,51.272,51.271,43.027,61.442,43.027 L61.442,43.027z M61.438,18.389c23.778,0,43.054,19.279,43.054,43.054s-19.275,43.049-43.054,43.049 c-23.77,0-43.049-19.274-43.049-43.049S37.668,18.389,61.438,18.389L61.438,18.389z"/></g></svg>