<?xml version="1.0" encoding="UTF-8" standalone="no"?>
<svg
   id="Layer_1"
   data-name="Layer 1"
   viewBox="0 0 122.88 80.77"
   version="1.1"
   sodipodi:docname="gif-editor-icon.svg"
   inkscape:version="1.1.2 (0a00cf5339, 2022-02-04)"
   xmlns:inkscape="http://www.inkscape.org/namespaces/inkscape"
   xmlns:sodipodi="http://sodipodi.sourceforge.net/DTD/sodipodi-0.dtd"
   xmlns="http://www.w3.org/2000/svg"
   xmlns:svg="http://www.w3.org/2000/svg"
   xmlns:rdf="http://www.w3.org/1999/02/22-rdf-syntax-ns#"
   xmlns:cc="http://creativecommons.org/ns#"
   xmlns:dc="http://purl.org/dc/elements/1.1/">
  <sodipodi:namedview
     id="namedview11"
     pagecolor="#ffffff"
     bordercolor="#666666"
     borderopacity="1.0"
     inkscape:pageshadow="2"
     inkscape:pageopacity="0.0"
     inkscape:pagecheckerboard="0"
     showgrid="false"
     inkscape:zoom="3.8213708"
     inkscape:cx="63.720589"
     inkscape:cy="34.150049"
     inkscape:window-width="2490"
     inkscape:window-height="1376"
     inkscape:window-x="2630"
     inkscape:window-y="27"
     inkscape:window-maximized="1"
     inkscape:current-layer="Layer_1" />
  <defs
     id="defs4">
    <style
       id="style2">.cls-1{fill-rule:evenodd;}</style>
  </defs>
  <title
     id="title6">photo-editor</title>
  <path
     class="cls-1"
     d="m 109.47,24.62 12.12,10.94 c 1.59947,1.450642 1.72896,3.920019 0.29,5.53 l -6.06,6.71 -17.93,-16.19 6,-6.7 c 1.45064,-1.599466 3.92002,-1.728964 5.53,-0.29 z M 11.15,0 H 92 c 1.462253,-0.00132187 2.910228,0.28759322 4.26,0.85 2.711363,1.1329192 4.86708,3.288637 6,6 0.84502,2.1905524 0.85,3.908392 0.85,6.15 -2.74209,0.511691 -5.169369,1.726588 -7.17,3.56 C 95.907192,12.758805 96.343598,7.9459124 92,7.94 H 11.15 C 10.731272,7.9365093 10.316204,8.0181621 9.93,8.18 9.136834,8.5069176 8.5069176,9.136834 8.18,9.93 8.0181621,10.316204 7.9365093,10.731272 7.94,11.15 v 58.47 c -0.00266,0.41865 0.078957,0.833554 0.24,1.22 0.5046261,1.211103 1.6879722,2 3,2 H 61 l -0.21,1.39 v 0.18 0 0.09 0.27 0 0.87 0.08 0.26 0.58 0 1.64 0 1.16 1.4 H 11.15 C 6.6398707,80.745888 2.5790708,78.025547 0.85,73.86 0.28891365,72.51683 -1.5605197e-6,71.075653 0,69.62 V 11.15 C -0.00132187,9.6877467 0.28759322,8.2397722 0.85,6.89 1.4174627,5.5395257 2.2390086,4.3106015 3.27,3.27 4.3124445,2.2365785 5.5451323,1.4147866 6.9,0.85 8.2462762,0.28761456 9.6909815,-0.0013265 11.15,0 Z M 93,73.46 c -4.54,1.66 -8.15,2.4 -12.69,4.06 -9.62,2.61 -9.43,4.81 -8.09,-4.45 L 75.1,57.31 v 0 L 94.83,35 112.76,51.18 93,73.47 Z M 78.17,60.07 89.94,70.69 81,74 c -7,2.56 -6.91,4 -5.32,-2.94 l 2.5,-11 z"
     id="path8"
     sodipodi:nodetypes="cccccccccccccccccccccsccccccccccccccccccccccccccccccccccccccc" />
  <metadata
     id="metadata828">
    <rdf:RDF>
      <cc:Work
         rdf:about="">
        <dc:title>photo-editor</dc:title>
      </cc:Work>
    </rdf:RDF>
  </metadata>
  <path
     class="st0"
     d="m 31.193486,43.902607 v -6.52348 h 11.217393 v 13.339604 c -2.146652,1.950948 -4.046666,3.292224 -5.69091,3.999442 -1.653377,0.707219 -3.608199,1.060827 -5.873601,1.060827 -2.786079,0 -5.060616,-0.634058 -6.814475,-1.902172 -1.75386,-1.268116 -3.114928,-3.158097 -4.083205,-5.657749 -0.968276,-2.499651 -1.452415,-5.389492 -1.452415,-8.632942 0,-3.426353 0.529813,-6.389354 1.589436,-8.925585 1.059623,-2.524039 2.603384,-4.4506 4.640419,-5.755296 1.589436,-1.012053 3.736087,-1.511984 6.421684,-1.511984 2.59425,0 4.530804,0.317028 5.818795,0.938893 1.28799,0.621865 2.356748,1.597339 3.206274,2.914229 0.849525,1.316889 1.488952,2.987387 1.909148,5.011495 l -6.988034,1.682693 c -0.29231,-1.194956 -0.776448,-2.097268 -1.46155,-2.731326 -0.6851,-0.634058 -1.562031,-0.951088 -2.639923,-0.951088 -1.589435,0 -2.850022,0.731605 -3.800029,2.20701 -0.950006,1.475404 -1.415876,3.804348 -1.415876,6.999023 0,3.389773 0.475004,5.804069 1.434146,7.267281 0.950007,1.451017 2.283671,2.182622 3.991857,2.182622 0.812986,0 1.5803,-0.158514 2.32021,-0.46335 0.730774,-0.317028 1.571165,-0.841346 2.530307,-1.597338 V 43.914801 H 31.193486 Z M 48.156595,23.881008 h 7.280344 v 31.349289 h -7.280344 z m 13.656354,0 h 17.94052 v 6.742963 H 69.093292 v 5.474846 h 9.116416 v 6.352773 h -9.116416 v 12.790901 h -7.280343 z"
     id="path4"
     sodipodi:nodetypes="cccccssssccsssccsssscsccccccccccccccccccccc"
     style="clip-rule:evenodd;fill-rule:evenodd;stroke-width:1.05538" />
</svg>
