<?xml version="1.0" encoding="utf-8"?><svg version="1.1" id="Layer_1" xmlns="http://www.w3.org/2000/svg" xmlns:xlink="http://www.w3.org/1999/xlink" x="0px" y="0px" width="122.879px" height="79.699px" viewBox="0 0 122.879 79.699" enable-background="new 0 0 122.879 79.699" xml:space="preserve"><g><path d="M0.955,37.326c2.922-3.528,5.981-6.739,9.151-9.625C24.441,14.654,41.462,7.684,59.01,7.334 c6.561-0.131,13.185,0.665,19.757,2.416l-5.904,5.904c-4.581-0.916-9.168-1.324-13.714-1.233 c-15.811,0.316-31.215,6.657-44.262,18.533l0,0c-2.324,2.115-4.562,4.39-6.702,6.82c4.071,4.721,8.6,8.801,13.452,12.227 c2.988,2.111,6.097,3.973,9.296,5.586l-5.262,5.262c-2.782-1.504-5.494-3.184-8.12-5.039c-6.143-4.338-11.813-9.629-16.78-15.85 C-0.338,40.563-0.228,38.59,0.955,37.326L0.955,37.326L0.955,37.326z M96.03,0l5.893,5.893L28.119,79.699l-5.894-5.895L96.03,0 L96.03,0z M97.72,17.609c4.423,2.527,8.767,5.528,12.994,9.014c3.877,3.196,7.635,6.773,11.24,10.735 c1.163,1.277,1.22,3.171,0.226,4.507c-4.131,5.834-8.876,10.816-14.069,14.963C95.119,67.199,79.338,72.305,63.352,72.377 c-6.114,0.027-9.798-3.141-15.825-4.576l3.545-3.543c4.065,0.705,8.167,1.049,12.252,1.031c14.421-0.064,28.653-4.668,40.366-14.02 c3.998-3.191,7.706-6.939,11.028-11.254c-2.787-2.905-5.627-5.543-8.508-7.918c-4.455-3.673-9.042-6.759-13.707-9.273L97.72,17.609 L97.72,17.609z M61.44,18.143c2.664,0,5.216,0.481,7.576,1.359l-5.689,5.689c-0.619-0.079-1.248-0.119-1.886-0.119 c-4.081,0-7.775,1.654-10.449,4.328c-2.674,2.674-4.328,6.369-4.328,10.45c0,0.639,0.04,1.268,0.119,1.885l-5.689,5.691 c-0.879-2.359-1.359-4.912-1.359-7.576c0-5.995,2.43-11.42,6.358-15.349C50.02,20.572,55.446,18.143,61.44,18.143L61.44,18.143z M82.113,33.216c0.67,2.09,1.032,4.32,1.032,6.634c0,5.994-2.43,11.42-6.357,15.348c-3.929,3.928-9.355,6.357-15.348,6.357 c-2.313,0-4.542-0.361-6.633-1.033l5.914-5.914c0.238,0.012,0.478,0.018,0.719,0.018c4.081,0,7.775-1.652,10.449-4.326 s4.328-6.369,4.328-10.449c0-0.241-0.006-0.48-0.018-0.72L82.113,33.216L82.113,33.216z"/></g></svg>