<svg xmlns="http://www.w3.org/2000/svg" shape-rendering="geometricPrecision" text-rendering="geometricPrecision" image-rendering="optimizeQuality" fill-rule="evenodd" clip-rule="evenodd" viewBox="0 0 512 392.34"><path fill-rule="nonzero" d="M98.02 0h315.96c26.89 0 51.4 11.03 69.19 28.82C500.96 46.54 512 71.05 512 98.02V294.3c0 26.91-11.03 51.41-28.83 69.21-17.71 17.78-42.22 28.82-69.19 28.82H98.02c-26.97 0-51.48-11.04-69.23-28.79l-1.1-1.18C10.57 344.67 0 320.64 0 294.3V98.02c0-26.89 11.03-51.37 28.79-69.16l.07-.07C46.69 11.01 71.15 0 98.02 0zm225.71 208.59c12.37-7.99 12.34-16.89 0-23.96l-99.22-69.09c-10.09-6.32-20.6-2.61-20.32 10.55l.4 139c.86 14.27 9.01 18.19 21.02 11.59l98.12-68.09zm90.25-169.67H98.02c-16.29 0-31.07 6.62-41.73 17.3l-.07.07c-10.68 10.66-17.3 25.44-17.3 41.73V294.3c0 15.88 6.28 30.31 16.47 40.9l.9.84c10.71 10.71 25.49 17.37 41.73 17.37h315.96c16.24 0 31.02-6.66 41.73-17.37 10.74-10.66 17.37-25.44 17.37-41.74V98.02c0-16.24-6.66-31.02-17.37-41.73-10.66-10.75-25.44-17.37-41.73-17.37z"/></svg>