<?xml version="1.0" encoding="utf-8"?><svg version="1.1" id="Layer_1" xmlns="http://www.w3.org/2000/svg" xmlns:xlink="http://www.w3.org/1999/xlink" x="0px" y="0px" viewBox="0 0 122.88 121.52" style="enable-background:new 0 0 122.88 121.52" xml:space="preserve"><style type="text/css">.st0{fill-rule:evenodd;clip-rule:evenodd;}</style><g><path class="st0" d="M15.92,102.24L2.43,79.06c-2.44-4.19-3.34-7.49-1.31-12.34L9.05,53.4l-7.94-4.27l26.63-0.11l13.29,23.22 l-8.2-4.71L19.52,91.12c-1.26,2.24-2.31,3.93-2.96,6.48C16.17,99.14,15.98,100.69,15.92,102.24L15.92,102.24z M21.26,30.57 L34.08,8.27c3.61-4.49,8.1-6.11,12.37-4.9c3.68,1.04,4.7,2.7,6.66,5.69c2.34,3.57,4.38,7.38,6.51,11.12L45.28,44.81L21.26,30.57 L21.26,30.57z M50.43,0.09L77.25,0c4.85-0.02,8.16,0.86,11.34,5.04l7.57,13.53l7.67-4.74L90.6,36.93l-26.75-0.1l8.18-4.74 L58.26,8.77C56.95,6.56,56,4.8,54.12,2.96C52.98,1.85,51.74,0.92,50.43,0.09L50.43,0.09z M108.83,41.64l12.91,22.26 c2.09,5.37,1.24,10.07-1.94,13.16c-2.74,2.67-4.69,2.72-8.26,2.92c-4.26,0.24-8.58,0.11-12.89,0.08L84.49,55.33L108.83,41.64 L108.83,41.64z M120.64,82.14l-13.33,23.27c-2.41,4.21-4.82,6.64-10.03,7.3l-15.5-0.21l0.27,9.02L68.65,98.51L82.11,75.4l0.02,9.45 l27.08-0.27c2.57-0.03,4.56,0.03,7.1-0.68C117.84,83.47,119.27,82.86,120.64,82.14L120.64,82.14z M56.9,112.26l-25.73,0.05 c-5.69-0.88-9.34-3.96-10.43-8.26c-0.94-3.71-0.02-5.42,1.6-8.61c1.92-3.81,4.2-7.49,6.38-11.2l28.5,0.1L56.9,112.26L56.9,112.26z"/></g></svg>