<?xml version="1.0" encoding="utf-8"?><svg version="1.1" id="Layer_1" xmlns="http://www.w3.org/2000/svg" xmlns:xlink="http://www.w3.org/1999/xlink" x="0px" y="0px" viewBox="0 0 102.55 122.88" style="enable-background:new 0 0 102.55 122.88" xml:space="preserve"><style type="text/css">.st0{fill-rule:evenodd;clip-rule:evenodd;}</style><g><path class="st0" d="M102.55,122.88H0V0h77.66l24.89,26.43V122.88L102.55,122.88z M96.61,116.45V29.96H73.93l0-24.53H6.03v111.03 H96.61L96.61,116.45z M62.05,31.87H15.63v-6.03h46.42V31.87L62.05,31.87z M87.33,49.99h-71.7v-6.06h71.7V49.99L87.33,49.99z M47.3,68.05H15.63v-6.03H47.3V68.05L47.3,68.05z M88.95,86.04H15.63v-6.03h73.33V86.04L88.95,86.04z M88.95,104.13H15.63v-6.06 h73.33V104.13L88.95,104.13z"/></g></svg>