<?xml version="1.0" encoding="UTF-8"?>
<svg width="24px" height="24px" viewBox="0 0 24 24" version="1.1" xmlns="http://www.w3.org/2000/svg" xmlns:xlink="http://www.w3.org/1999/xlink">
    <!-- Generator: Sketch 44.1 (41455) - http://www.bohemiancoding.com/sketch -->
    <title>Bold/PNG/24/album-covers</title>
    <desc>Created with Sketch.</desc>
    <defs></defs>
    <g id="Bold-Outline" stroke="none" stroke-width="1" fill="none" fill-rule="evenodd">
        <g id="album-covers" fill-rule="nonzero" fill="#000000">
            <path d="M9,12.0500091 L9,10 C9,8.34314575 10.3431458,7 12,7 L14.5,7 C16.1568542,7 17.5,8.34314575 17.5,10 L17.5,14.4762194 C17.5,14.4792935 17.4999861,14.4823644 17.4999584,14.4854319 C17.4999861,14.4902847 17.5,14.4951407 17.5,14.5 C17.5,15.8807119 16.3807119,17 15,17 C13.6192881,17 12.5,15.8807119 12.5,14.5 C12.5,13.1192881 13.6192881,12 15,12 C15.1712329,12 15.338445,12.0172151 15.5,12.0500091 L15.5,10 C15.5,9.44771525 15.0522847,9 14.5,9 L12,9 C11.4477153,9 11,9.44771525 11,10 L11,14.4999999 C11,15.8807119 9.88071187,17 8.5,17 C7.11928813,17 6,15.8807119 6,14.5 C6,13.1192881 7.11928813,12 8.5,12 C8.67123292,12 8.83844503,12.0172151 9,12.0500091 Z M7,3 L17,3 C19.209139,3 21,4.790861 21,7 L21,17 C21,19.209139 19.209139,21 17,21 L7,21 C4.790861,21 3,19.209139 3,17 L3,7 C3,4.790861 4.790861,3 7,3 Z M7,5 C5.8954305,5 5,5.8954305 5,7 L5,17 C5,18.1045695 5.8954305,19 7,19 L17,19 C18.1045695,19 19,18.1045695 19,17 L19,7 C19,5.8954305 18.1045695,5 17,5 L7,5 Z M8.5,15 C8.77614237,15 9,14.7761424 9,14.5 C9,14.2238576 8.77614237,14 8.5,14 C8.22385763,14 8,14.2238576 8,14.5 C8,14.7761424 8.22385763,15 8.5,15 Z M15,15 C15.2761424,15 15.5,14.7761424 15.5,14.5 C15.5,14.2238576 15.2761424,14 15,14 C14.7238576,14 14.5,14.2238576 14.5,14.5 C14.5,14.7761424 14.7238576,15 15,15 Z M2,7 L2,17 C2,18.3333333 0,18.3333333 0,17 L0,7 C0,5.66666667 2,5.66666667 2,7 Z M24.25,7 L24.25,17 C24.25,18.3333333 22.25,18.3333333 22.25,17 L22.25,7 C22.25,5.66666667 24.25,5.66666667 24.25,7 Z" id="shape"></path>
        </g>
    </g>
</svg>