<?xml version="1.0" encoding="UTF-8" standalone="no"?>
<svg
   version="1.1"
   id="Layer_1"
   x="0px"
   y="0px"
   viewBox="0 0 122.47 122.88"
   style="enable-background:new 0 0 122.47 122.88"
   xml:space="preserve"
   sodipodi:docname="object-selected-icon.svg"
   inkscape:version="1.1.2 (0a00cf5339, 2022-02-04)"
   xmlns:inkscape="http://www.inkscape.org/namespaces/inkscape"
   xmlns:sodipodi="http://sodipodi.sourceforge.net/DTD/sodipodi-0.dtd"
   xmlns="http://www.w3.org/2000/svg"
   xmlns:svg="http://www.w3.org/2000/svg"><defs
     id="defs9" /><sodipodi:namedview
     id="namedview7"
     pagecolor="#ffffff"
     bordercolor="#666666"
     borderopacity="1.0"
     inkscape:pageshadow="2"
     inkscape:pageopacity="0.0"
     inkscape:pagecheckerboard="0"
     showgrid="false"
     inkscape:zoom="7.1044923"
     inkscape:cx="61.299243"
     inkscape:cy="61.439999"
     inkscape:window-width="2490"
     inkscape:window-height="1376"
     inkscape:window-x="2630"
     inkscape:window-y="27"
     inkscape:window-maximized="1"
     inkscape:current-layer="Layer_1" /><g
     id="g4"
     style="fill:#ffffff;fill-opacity:1"><path
       d="M12.21,98.7v11.97h12.66v12.21H6.1c-3.37,0-6.1-2.73-6.1-6.1V98.7H12.21L12.21,98.7z M27.89,20.54h67.64 c3.37,0,6.1,2.73,6.1,6.1v69.73c0,3.37-2.73,6.1-6.1,6.1H27.89c-3.37,0-6.1-2.73-6.1-6.1V26.64 C21.79,23.27,24.52,20.54,27.89,20.54L27.89,20.54z M91.34,30.82H32.07v61.36h59.27V30.82L91.34,30.82z M0,24.18V6.1 C0,2.73,2.73,0,6.1,0h18.76v12.21H12.21v11.97H0L0,24.18z M110.27,24.18V12.21H97.61V0h18.76c3.37,0,6.1,2.73,6.1,6.1v18.07H110.27 L110.27,24.18z M122.47,98.7v18.07c0,3.37-2.73,6.1-6.1,6.1H97.61v-12.21h12.66V98.7H122.47L122.47,98.7z"
       id="path2"
       style="fill:#ffffff;fill-opacity:1" /></g></svg>
