<?xml version="1.0" encoding="UTF-8" standalone="no"?>
<svg
   version="1.1"
   id="Layer_1"
   x="0px"
   y="0px"
   viewBox="0 0 115.28 122.88"
   style="enable-background:new 0 0 115.28 122.88"
   xml:space="preserve"
   sodipodi:docname="ai-file-icon.svg"
   inkscape:version="1.1.2 (0a00cf5339, 2022-02-04)"
   xmlns:inkscape="http://www.inkscape.org/namespaces/inkscape"
   xmlns:sodipodi="http://sodipodi.sourceforge.net/DTD/sodipodi-0.dtd"
   xmlns="http://www.w3.org/2000/svg"
   xmlns:svg="http://www.w3.org/2000/svg"><defs
     id="defs11" /><sodipodi:namedview
     id="namedview9"
     pagecolor="#ffffff"
     bordercolor="#666666"
     borderopacity="1.0"
     inkscape:pageshadow="2"
     inkscape:pageopacity="0.0"
     inkscape:pagecheckerboard="0"
     showgrid="false"
     inkscape:zoom="7.1044923"
     inkscape:cx="57.709964"
     inkscape:cy="61.439999"
     inkscape:window-width="2490"
     inkscape:window-height="1376"
     inkscape:window-x="2630"
     inkscape:window-y="27"
     inkscape:window-maximized="1"
     inkscape:current-layer="Layer_1" /><style
     type="text/css"
     id="style2">.st0{fill-rule:evenodd;clip-rule:evenodd;}</style><g
     id="g6"
     style="fill:#ffffff;fill-opacity:1"><path
       class="st0"
       d="M25.38,57h64.88V37.34H69.59c-2.17,0-5.19-1.17-6.62-2.6c-1.43-1.43-2.3-4.01-2.3-6.17V7.64l0,0H8.15 c-0.18,0-0.32,0.09-0.41,0.18C7.59,7.92,7.55,8.05,7.55,8.24v106.45c0,0.14,0.09,0.32,0.18,0.41c0.09,0.14,0.28,0.18,0.41,0.18 c22.78,0,58.09,0,81.51,0c0.18,0,0.17-0.09,0.27-0.18c0.14-0.09,0.33-0.28,0.33-0.41v-11.16H25.38c-4.14,0-7.56-3.4-7.56-7.56 V64.55C17.82,60.4,21.22,57,25.38,57L25.38,57z M61.89,88.45h-8.88l-1.28,4.18h-8l9.55-25.36h8.58l9.5,25.36h-8.21L61.89,88.45 L61.89,88.45z M60.23,82.96l-2.77-9.11l-2.78,9.11H60.23L60.23,82.96z M75.4,67.27h7.86v25.36H75.4V67.27L75.4,67.27z M97.79,57 h9.93c4.16,0,7.56,3.41,7.56,7.56v31.42c0,4.15-3.41,7.56-7.56,7.56h-9.93v13.55c0,1.61-0.65,3.04-1.7,4.1 c-1.06,1.06-2.49,1.7-4.1,1.7c-29.44,0-56.59,0-86.18,0c-1.61,0-3.04-0.64-4.1-1.7c-1.06-1.06-1.7-2.49-1.7-4.1V5.85 c0-1.61,0.65-3.04,1.7-4.1c1.06-1.06,2.53-1.7,4.1-1.7h58.72C64.66,0,64.8,0,64.94,0c0.64,0,1.29,0.28,1.75,0.69h0.09 c0.09,0.05,0.14,0.09,0.23,0.18l29.99,30.36c0.51,0.51,0.88,1.2,0.88,1.98c0,0.23-0.05,0.41-0.09,0.65V57L97.79,57z M67.52,27.97 V8.94l21.43,21.7H70.19c-0.74,0-1.38-0.32-1.89-0.78C67.84,29.4,67.52,28.71,67.52,27.97L67.52,27.97z"
       id="path4"
       style="fill:#ffffff;fill-opacity:1" /></g></svg>
