<?xml version="1.0" encoding="UTF-8" standalone="no"?>
<svg
   version="1.1"
   id="Layer_1"
   x="0px"
   y="0px"
   width="122.877px"
   height="101.052px"
   viewBox="0 0 122.877 101.052"
   enable-background="new 0 0 122.877 101.052"
   xml:space="preserve"
   sodipodi:docname="check-mark-icon.svg"
   inkscape:version="1.1.2 (0a00cf5339, 2022-02-04)"
   xmlns:inkscape="http://www.inkscape.org/namespaces/inkscape"
   xmlns:sodipodi="http://sodipodi.sourceforge.net/DTD/sodipodi-0.dtd"
   xmlns="http://www.w3.org/2000/svg"
   xmlns:svg="http://www.w3.org/2000/svg"><defs
     id="defs9" /><sodipodi:namedview
     id="namedview7"
     pagecolor="#ffffff"
     bordercolor="#666666"
     borderopacity="1.0"
     inkscape:pageshadow="2"
     inkscape:pageopacity="0.0"
     inkscape:pagecheckerboard="0"
     showgrid="false"
     inkscape:zoom="8.6391163"
     inkscape:cx="61.406743"
     inkscape:cy="50.526001"
     inkscape:window-width="2490"
     inkscape:window-height="1376"
     inkscape:window-x="2630"
     inkscape:window-y="27"
     inkscape:window-maximized="1"
     inkscape:current-layer="Layer_1" /><g
     id="g4"
     style="fill:#ffffff;fill-opacity:1"><path
       d="M4.43,63.63c-2.869-2.755-4.352-6.42-4.427-10.11c-0.074-3.689,1.261-7.412,4.015-10.281 c2.752-2.867,6.417-4.351,10.106-4.425c3.691-0.076,7.412,1.255,10.283,4.012l24.787,23.851L98.543,3.989l1.768,1.349l-1.77-1.355 c0.141-0.183,0.301-0.339,0.479-0.466c2.936-2.543,6.621-3.691,10.223-3.495V0.018l0.176,0.016c3.623,0.24,7.162,1.85,9.775,4.766 c2.658,2.965,3.863,6.731,3.662,10.412h0.004l-0.016,0.176c-0.236,3.558-1.791,7.035-4.609,9.632l-59.224,72.09l0.004,0.004 c-0.111,0.141-0.236,0.262-0.372,0.368c-2.773,2.435-6.275,3.629-9.757,3.569c-3.511-0.061-7.015-1.396-9.741-4.016L4.43,63.63 L4.43,63.63z"
       id="path2"
       style="fill:#ffffff;fill-opacity:1" /></g></svg>
