<?xml version="1.0" encoding="UTF-8" standalone="no"?>
<svg
   version="1.1"
   id="Layer_1"
   x="0px"
   y="0px"
   width="121.31px"
   height="122.876px"
   viewBox="0 0 121.31 122.876"
   enable-background="new 0 0 121.31 122.876"
   xml:space="preserve"
   sodipodi:docname="close-icon.svg"
   inkscape:version="1.1.2 (0a00cf5339, 2022-02-04)"
   xmlns:inkscape="http://www.inkscape.org/namespaces/inkscape"
   xmlns:sodipodi="http://sodipodi.sourceforge.net/DTD/sodipodi-0.dtd"
   xmlns="http://www.w3.org/2000/svg"
   xmlns:svg="http://www.w3.org/2000/svg"><defs
     id="defs9" /><sodipodi:namedview
     id="namedview7"
     pagecolor="#ffffff"
     bordercolor="#666666"
     borderopacity="1.0"
     inkscape:pageshadow="2"
     inkscape:pageopacity="0.0"
     inkscape:pagecheckerboard="0"
     showgrid="false"
     inkscape:zoom="7.1047235"
     inkscape:cx="60.593491"
     inkscape:cy="61.438"
     inkscape:window-width="2490"
     inkscape:window-height="1376"
     inkscape:window-x="2630"
     inkscape:window-y="27"
     inkscape:window-maximized="1"
     inkscape:current-layer="Layer_1" /><g
     id="g4"
     style="fill:#fffffe;fill-opacity:1"><path
       fill-rule="evenodd"
       clip-rule="evenodd"
       d="M90.914,5.296c6.927-7.034,18.188-7.065,25.154-0.068 c6.961,6.995,6.991,18.369,0.068,25.397L85.743,61.452l30.425,30.855c6.866,6.978,6.773,18.28-0.208,25.247 c-6.983,6.964-18.21,6.946-25.074-0.031L60.669,86.881L30.395,117.58c-6.927,7.034-18.188,7.065-25.154,0.068 c-6.961-6.995-6.992-18.369-0.068-25.397l30.393-30.827L5.142,30.568c-6.867-6.978-6.773-18.28,0.208-25.247 c6.983-6.963,18.21-6.946,25.074,0.031l30.217,30.643L90.914,5.296L90.914,5.296z"
       id="path2"
       style="fill:#fffffe;fill-opacity:1" /></g></svg>
