<?xml version="1.0" encoding="UTF-8" standalone="no"?>
<svg
   id="Layer_1"
   data-name="Layer 1"
   viewBox="0 0 122.88 122.88"
   version="1.1"
   sodipodi:docname="cross-symbol-icon.svg"
   inkscape:version="1.1.2 (0a00cf5339, 2022-02-04)"
   xmlns:inkscape="http://www.inkscape.org/namespaces/inkscape"
   xmlns:sodipodi="http://sodipodi.sourceforge.net/DTD/sodipodi-0.dtd"
   xmlns="http://www.w3.org/2000/svg"
   xmlns:svg="http://www.w3.org/2000/svg"
   xmlns:rdf="http://www.w3.org/1999/02/22-rdf-syntax-ns#"
   xmlns:cc="http://creativecommons.org/ns#"
   xmlns:dc="http://purl.org/dc/elements/1.1/">
  <sodipodi:namedview
     id="namedview11"
     pagecolor="#ffffff"
     bordercolor="#666666"
     borderopacity="1.0"
     inkscape:pageshadow="2"
     inkscape:pageopacity="0.0"
     inkscape:pagecheckerboard="0"
     showgrid="false"
     inkscape:zoom="7.1044923"
     inkscape:cx="61.369621"
     inkscape:cy="61.439999"
     inkscape:window-width="2490"
     inkscape:window-height="1376"
     inkscape:window-x="2630"
     inkscape:window-y="27"
     inkscape:window-maximized="1"
     inkscape:current-layer="Layer_1" />
  <defs
     id="defs4">
    <style
       id="style2">.cls-1{fill-rule:evenodd;}</style>
  </defs>
  <title
     id="title6">cross-symbol</title>
  <path
     class="cls-1"
     d="M61.44,0A61.44,61.44,0,1,1,0,61.44,61.44,61.44,0,0,1,61.44,0ZM74.58,36.8c1.74-1.77,2.83-3.18,5-1l7,7.13c2.29,2.26,2.17,3.58,0,5.69L73.33,61.83,86.08,74.58c1.77,1.74,3.18,2.83,1,5l-7.13,7c-2.26,2.29-3.58,2.17-5.68,0L61.44,73.72,48.63,86.53c-2.1,2.15-3.42,2.27-5.68,0l-7.13-7c-2.2-2.15-.79-3.24,1-5L49.55,61.83,36.35,48.64c-2.15-2.11-2.27-3.43,0-5.69l7-7.13c2.15-2.2,3.24-.79,5,1L61.44,49.94,74.58,36.8Z"
     id="path8"
     style="fill:#fffffe;fill-opacity:1" />
  <metadata
     id="metadata1006">
    <rdf:RDF>
      <cc:Work
         rdf:about="">
        <dc:title>cross-symbol</dc:title>
      </cc:Work>
    </rdf:RDF>
  </metadata>
</svg>
