<?xml version="1.0" encoding="UTF-8" standalone="no"?>
<svg
   version="1.1"
   id="Layer_1"
   x="0px"
   y="0px"
   viewBox="0 0 118.91 122.88"
   style="enable-background:new 0 0 118.91 122.88"
   xml:space="preserve"
   sodipodi:docname="dice-game-icon.svg"
   inkscape:version="1.1.2 (0a00cf5339, 2022-02-04)"
   xmlns:inkscape="http://www.inkscape.org/namespaces/inkscape"
   xmlns:sodipodi="http://sodipodi.sourceforge.net/DTD/sodipodi-0.dtd"
   xmlns="http://www.w3.org/2000/svg"
   xmlns:svg="http://www.w3.org/2000/svg"><defs
     id="defs11" /><sodipodi:namedview
     id="namedview9"
     pagecolor="#ffffff"
     bordercolor="#666666"
     borderopacity="1.0"
     inkscape:pageshadow="2"
     inkscape:pageopacity="0.0"
     inkscape:pagecheckerboard="0"
     showgrid="false"
     inkscape:zoom="7.1044923"
     inkscape:cx="59.469414"
     inkscape:cy="61.439999"
     inkscape:window-width="2490"
     inkscape:window-height="1376"
     inkscape:window-x="2630"
     inkscape:window-y="27"
     inkscape:window-maximized="1"
     inkscape:current-layer="Layer_1" /><style
     type="text/css"
     id="style2">.st0{fill-rule:evenodd;clip-rule:evenodd;}</style><g
     id="g6"
     style="fill:#ffffff;fill-opacity:1"><path
       class="st0"
       d="M6.41,23.43l49.53,20.15c1.57,0.64,4.17,1.04,5.74,0.4l52.42-21.41c1.57-0.64-0.02-3.49-1.62-4.05L59.62,0 c-0.4-0.14-10.33,3.48-11.72,3.97L4.79,19.38C3.12,19.97,4.26,22.55,6.41,23.43L6.41,23.43z M116.87,94.34l-51.73,28.06 c-1.49,0.81-3.56,0.69-3.56-1.01l-0.01-66.03c0-1.7,0.14-3.36,1.7-4.03l51.92-22.12c1.56-0.66,3.73-0.07,3.72,1.62l-0.34,59.48 C118.56,92,118.36,93.53,116.87,94.34L116.87,94.34z M104.99,71.09c3.52,1.5,4.55,6.77,2.28,11.78c-2.26,5-6.96,7.84-10.48,6.34 c-3.52-1.5-4.55-6.77-2.28-11.78C96.78,72.43,101.47,69.59,104.99,71.09L104.99,71.09z M86.22,57.28c3.65,1.55,4.7,7.01,2.36,12.19 c-2.34,5.18-7.2,8.12-10.85,6.57c-3.65-1.55-4.7-7.01-2.36-12.19C77.71,58.66,82.57,55.72,86.22,57.28L86.22,57.28z M1.81,93.89 l51.26,27.75c1.49,0.81,3.56,0.69,3.56-1.01l0.01-65.42c0-1.7-0.14-3.36-1.7-4.03L3.72,29.22C2.16,28.55,0,29.15,0,30.85 l0.11,59.02C0.11,91.56,0.32,93.08,1.81,93.89L1.81,93.89z M6.91,75.74c3.21-2.04,7.99,0.29,10.66,5.2s2.24,10.56-0.97,12.6 c-3.21,2.04-7.99-0.29-10.66-5.2C3.27,83.42,3.7,77.78,6.91,75.74L6.91,75.74z M22.06,64.37c3.4-2.06,8.45,0.29,11.28,5.26 c2.83,4.97,2.38,10.67-1.02,12.73c-3.4,2.06-8.45-0.29-11.28-5.26C18.2,72.14,18.66,66.44,22.06,64.37L22.06,64.37z M38.12,52.37 c3.42-2.07,8.51,0.29,11.36,5.26c2.85,4.97,2.39,10.68-1.03,12.74c-3.42,2.07-8.51-0.29-11.36-5.26 C34.24,60.14,34.7,54.44,38.12,52.37L38.12,52.37z M59.16,15.48c6.04,0,10.93,2.34,10.93,5.22c0,2.88-4.89,5.22-10.93,5.22 c-6.03,0-10.93-2.34-10.93-5.22C48.23,17.82,53.13,15.48,59.16,15.48L59.16,15.48z"
       id="path4"
       style="fill:#ffffff;fill-opacity:1" /></g></svg>
