<?xml version="1.0" encoding="UTF-8" standalone="no"?>
<svg
   version="1.1"
   id="Layer_1"
   x="0px"
   y="0px"
   viewBox="0 0 102.52 122.88"
   style="enable-background:new 0 0 102.52 122.88"
   xml:space="preserve"
   sodipodi:docname="exchange-refresh-icon.svg"
   inkscape:version="1.1.2 (0a00cf5339, 2022-02-04)"
   xmlns:inkscape="http://www.inkscape.org/namespaces/inkscape"
   xmlns:sodipodi="http://sodipodi.sourceforge.net/DTD/sodipodi-0.dtd"
   xmlns="http://www.w3.org/2000/svg"
   xmlns:svg="http://www.w3.org/2000/svg"><defs
     id="defs11" /><sodipodi:namedview
     id="namedview9"
     pagecolor="#ffffff"
     bordercolor="#666666"
     borderopacity="1.0"
     inkscape:pageshadow="2"
     inkscape:pageopacity="0.0"
     inkscape:pagecheckerboard="0"
     showgrid="false"
     inkscape:zoom="7.1044923"
     inkscape:cx="51.305566"
     inkscape:cy="61.439999"
     inkscape:window-width="2490"
     inkscape:window-height="1376"
     inkscape:window-x="2630"
     inkscape:window-y="27"
     inkscape:window-maximized="1"
     inkscape:current-layer="Layer_1" /><style
     type="text/css"
     id="style2">.st0{fill-rule:evenodd;clip-rule:evenodd;}</style><g
     id="g6"
     style="fill:#fffffe;fill-opacity:1"><path
       class="st0"
       d="M56.9,9.2l-8.75,44.47L39.28,40.3C20.17,47.97,9.44,60.62,7.85,80.09c-15.7-27.44-6.16-52.04,13.73-66.45 L12.52,0L56.9,9.2L56.9,9.2L56.9,9.2L56.9,9.2L56.9,9.2z M45.61,113.68l8.75-44.47l8.87,13.37c19.11-7.67,29.83-20.32,31.43-39.79 c15.7,27.44,6.16,52.04-13.73,66.45l9.05,13.64L45.61,113.68L45.61,113.68L45.61,113.68L45.61,113.68L45.61,113.68z"
       id="path4"
       style="fill:#fffffe;fill-opacity:1" /></g></svg>
