<?xml version="1.0" encoding="UTF-8" standalone="no"?>
<svg
   version="1.1"
   id="Layer_1"
   x="0px"
   y="0px"
   viewBox="0 0 115.28 122.88"
   style="enable-background:new 0 0 115.28 122.88"
   xml:space="preserve"
   sodipodi:docname="gif-file-icon.svg"
   inkscape:version="1.1.2 (0a00cf5339, 2022-02-04)"
   xmlns:inkscape="http://www.inkscape.org/namespaces/inkscape"
   xmlns:sodipodi="http://sodipodi.sourceforge.net/DTD/sodipodi-0.dtd"
   xmlns="http://www.w3.org/2000/svg"
   xmlns:svg="http://www.w3.org/2000/svg"><defs
     id="defs11" /><sodipodi:namedview
     id="namedview9"
     pagecolor="#ffffff"
     bordercolor="#666666"
     borderopacity="1.0"
     inkscape:pageshadow="2"
     inkscape:pageopacity="0.0"
     inkscape:pagecheckerboard="0"
     showgrid="false"
     inkscape:zoom="7.1044923"
     inkscape:cx="57.709964"
     inkscape:cy="61.439999"
     inkscape:window-width="2490"
     inkscape:window-height="1376"
     inkscape:window-x="2630"
     inkscape:window-y="27"
     inkscape:window-maximized="1"
     inkscape:current-layer="Layer_1" /><style
     type="text/css"
     id="style2">.st0{fill-rule:evenodd;clip-rule:evenodd;}</style><g
     id="g6"
     style="fill:#ffffff;fill-opacity:1"><path
       class="st0"
       d="M25.38,57h64.88V37.34H69.59c-2.17,0-5.19-1.17-6.62-2.6c-1.43-1.43-2.3-4.01-2.3-6.17V7.64l0,0H8.15 c-0.18,0-0.32,0.09-0.41,0.18C7.59,7.92,7.55,8.05,7.55,8.24v106.45c0,0.14,0.09,0.32,0.18,0.41c0.09,0.14,0.28,0.18,0.41,0.18 c22.78,0,58.09,0,81.51,0c0.18,0,0.17-0.09,0.27-0.18c0.14-0.09,0.33-0.28,0.33-0.41v-11.16H25.38c-4.14,0-7.56-3.4-7.56-7.56 V64.55C17.82,60.4,21.22,57,25.38,57L25.38,57z M45.38,83.83v-5.35h12.28v10.94c-2.35,1.6-4.43,2.7-6.23,3.28 c-1.81,0.58-3.95,0.87-6.43,0.87c-3.05,0-5.54-0.52-7.46-1.56c-1.92-1.04-3.41-2.59-4.47-4.64c-1.06-2.05-1.59-4.42-1.59-7.08 c0-2.81,0.58-5.24,1.74-7.32c1.16-2.07,2.85-3.65,5.08-4.72c1.74-0.83,4.09-1.24,7.03-1.24c2.84,0,4.96,0.26,6.37,0.77 c1.41,0.51,2.58,1.31,3.51,2.39c0.93,1.08,1.63,2.45,2.09,4.11l-7.65,1.38c-0.32-0.98-0.85-1.72-1.6-2.24 c-0.75-0.52-1.71-0.78-2.89-0.78c-1.74,0-3.12,0.6-4.16,1.81c-1.04,1.21-1.55,3.12-1.55,5.74c0,2.78,0.52,4.76,1.57,5.96 c1.04,1.19,2.5,1.79,4.37,1.79c0.89,0,1.73-0.13,2.54-0.38c0.8-0.26,1.72-0.69,2.77-1.31v-2.41H45.38L45.38,83.83z M63.95,67.41 h7.97v25.71h-7.97V67.41L63.95,67.41z M78.9,67.41h19.64v5.53H86.87v4.49h9.98v5.21h-9.98v10.49H78.9V67.41L78.9,67.41z M97.79,57 h9.93c4.16,0,7.56,3.41,7.56,7.56v31.42c0,4.15-3.41,7.56-7.56,7.56h-9.93v13.55c0,1.61-0.65,3.04-1.7,4.1 c-1.06,1.06-2.49,1.7-4.1,1.7c-29.44,0-56.59,0-86.18,0c-1.61,0-3.04-0.64-4.1-1.7c-1.06-1.06-1.7-2.49-1.7-4.1V5.85 c0-1.61,0.65-3.04,1.7-4.1c1.06-1.06,2.53-1.7,4.1-1.7h58.72C64.66,0,64.8,0,64.94,0c0.64,0,1.29,0.28,1.75,0.69h0.09 c0.09,0.05,0.14,0.09,0.23,0.18l29.99,30.36c0.51,0.51,0.88,1.2,0.88,1.98c0,0.23-0.05,0.41-0.09,0.65V57L97.79,57z M67.52,27.97 V8.94l21.43,21.7H70.19c-0.74,0-1.38-0.32-1.89-0.78C67.84,29.4,67.52,28.71,67.52,27.97L67.52,27.97z"
       id="path4"
       style="fill:#ffffff;fill-opacity:1" /></g></svg>
