<?xml version="1.0" encoding="UTF-8" standalone="no"?>
<svg
   version="1.1"
   id="Layer_1"
   x="0px"
   y="0px"
   viewBox="0 0 102.55 122.88"
   style="enable-background:new 0 0 102.55 122.88"
   xml:space="preserve"
   sodipodi:docname="image-file-icon.svg"
   inkscape:version="1.1.2 (0a00cf5339, 2022-02-04)"
   xmlns:inkscape="http://www.inkscape.org/namespaces/inkscape"
   xmlns:sodipodi="http://sodipodi.sourceforge.net/DTD/sodipodi-0.dtd"
   xmlns="http://www.w3.org/2000/svg"
   xmlns:svg="http://www.w3.org/2000/svg"><defs
     id="defs11" /><sodipodi:namedview
     id="namedview9"
     pagecolor="#ffffff"
     bordercolor="#666666"
     borderopacity="1.0"
     inkscape:pageshadow="2"
     inkscape:pageopacity="0.0"
     inkscape:pagecheckerboard="0"
     showgrid="false"
     inkscape:zoom="7.1044923"
     inkscape:cx="51.305566"
     inkscape:cy="61.439999"
     inkscape:window-width="2490"
     inkscape:window-height="1376"
     inkscape:window-x="2630"
     inkscape:window-y="27"
     inkscape:window-maximized="1"
     inkscape:current-layer="Layer_1" /><style
     type="text/css"
     id="style2">.st0{fill-rule:evenodd;clip-rule:evenodd;}</style><g
     id="g6"
     style="fill:#fffffe;fill-opacity:1"><path
       class="st0"
       d="M102.55,122.88H0V0h77.66l24.89,26.44L102.55,122.88L102.55,122.88z M29.82,45.51c4.33,0,7.84,3.5,7.84,7.83 c0,4.32-3.51,7.83-7.84,7.83c-4.32,0-7.83-3.51-7.83-7.83C21.99,49.01,25.5,45.51,29.82,45.51L29.82,45.51z M62.71,75.27 l14.02-24.24l2.07-3.57l1.52,3.84l9.45,44.84h-75.3v-9.12l2.87-0.1l5.26-0.27l6.06-14.81l3.77,0.2l2.84,9.98l6.92,0l8-20.59 l1.43-3.69l2.12,3.33L62.71,75.27L62.71,75.27L62.71,75.27z M96.13,115.98V32.36H73.45V5.91H6.51v110.07H96.13L96.13,115.98 L96.13,115.98z"
       id="path4"
       style="fill:#fffffe;fill-opacity:1" /></g></svg>
