<?xml version="1.0" encoding="UTF-8" standalone="no"?>
<svg
   version="1.1"
   id="Layer_1"
   x="0px"
   y="0px"
   viewBox="0 0 122.88 105.02"
   style="enable-background:new 0 0 122.88 105.02"
   xml:space="preserve"
   sodipodi:docname="layer-icon.svg"
   inkscape:version="1.1.2 (0a00cf5339, 2022-02-04)"
   xmlns:inkscape="http://www.inkscape.org/namespaces/inkscape"
   xmlns:sodipodi="http://sodipodi.sourceforge.net/DTD/sodipodi-0.dtd"
   xmlns="http://www.w3.org/2000/svg"
   xmlns:svg="http://www.w3.org/2000/svg"><defs
     id="defs9" /><sodipodi:namedview
     id="namedview7"
     pagecolor="#ffffff"
     bordercolor="#666666"
     borderopacity="1.0"
     inkscape:pageshadow="2"
     inkscape:pageopacity="0.0"
     inkscape:pagecheckerboard="0"
     showgrid="false"
     inkscape:zoom="8.3127026"
     inkscape:cx="61.472186"
     inkscape:cy="52.509998"
     inkscape:window-width="2490"
     inkscape:window-height="1376"
     inkscape:window-x="2630"
     inkscape:window-y="27"
     inkscape:window-maximized="1"
     inkscape:current-layer="Layer_1" /><g
     id="g4"
     style="fill:#ffffff;fill-opacity:1"><path
       d="M97.25,40.58l23.85,10.28c1.48,0.64,2.17,2.36,1.53,3.85c-0.32,0.75-0.93,1.3-1.63,1.57l-23.19,9.39l23.29,10.04 c1.48,0.64,2.17,2.36,1.53,3.84c-0.32,0.75-0.93,1.3-1.63,1.57l-58.52,23.69c-0.73,0.3-1.52,0.27-2.2,0L1.83,81.05 c-1.5-0.61-2.22-2.31-1.61-3.81c0.33-0.82,0.99-1.4,1.76-1.67l22.97-9.96l-23.12-9.4c-1.5-0.61-2.22-2.31-1.61-3.81 c0.33-0.82,0.99-1.4,1.76-1.67l23.53-10.21L1.83,30.9c-1.5-0.61-2.22-2.31-1.61-3.81c0.33-0.82,0.99-1.4,1.76-1.67L60.02,0.24 c0.77-0.33,1.6-0.31,2.31,0l0-0.01l58.77,25.32c1.48,0.64,2.17,2.36,1.53,3.84c-0.32,0.75-0.93,1.3-1.63,1.57L97.25,40.58 L97.25,40.58z M112.36,53.47l-22.73-9.79L62.49,54.66c-0.73,0.3-1.52,0.27-2.2,0L33.08,43.6L10.47,53.4L61.39,74.1L112.36,53.47 L112.36,53.47z M90.19,68.75l-27.7,11.21c-0.73,0.3-1.52,0.27-2.2,0L32.52,68.68l-22.05,9.56l50.92,20.69l50.97-20.63L90.19,68.75 L90.19,68.75z M61.17,6.1l-50.7,21.99l50.92,20.69l50.97-20.63L61.17,6.1L61.17,6.1z"
       id="path2"
       style="fill:#ffffff;fill-opacity:1" /></g></svg>
