<?xml version="1.0" encoding="UTF-8" standalone="no"?>
<svg
   id="Layer_1"
   data-name="Layer 1"
   viewBox="0 0 122.88 80.77"
   version="1.1"
   sodipodi:docname="photo-editor-icon.svg"
   inkscape:version="1.1.2 (0a00cf5339, 2022-02-04)"
   xmlns:inkscape="http://www.inkscape.org/namespaces/inkscape"
   xmlns:sodipodi="http://sodipodi.sourceforge.net/DTD/sodipodi-0.dtd"
   xmlns="http://www.w3.org/2000/svg"
   xmlns:svg="http://www.w3.org/2000/svg"
   xmlns:rdf="http://www.w3.org/1999/02/22-rdf-syntax-ns#"
   xmlns:cc="http://creativecommons.org/ns#"
   xmlns:dc="http://purl.org/dc/elements/1.1/">
  <sodipodi:namedview
     id="namedview11"
     pagecolor="#ffffff"
     bordercolor="#666666"
     borderopacity="1.0"
     inkscape:pageshadow="2"
     inkscape:pageopacity="0.0"
     inkscape:pagecheckerboard="0"
     showgrid="false"
     inkscape:zoom="3.8213708"
     inkscape:cx="63.720589"
     inkscape:cy="34.150049"
     inkscape:window-width="2490"
     inkscape:window-height="1376"
     inkscape:window-x="2630"
     inkscape:window-y="27"
     inkscape:window-maximized="1"
     inkscape:current-layer="Layer_1" />
  <defs
     id="defs4">
    <style
       id="style2">.cls-1{fill-rule:evenodd;}</style>
  </defs>
  <title
     id="title6">photo-editor</title>
  <path
     class="cls-1"
     d="m 109.47,24.62 12.12,10.94 c 1.59947,1.450642 1.72896,3.920019 0.29,5.53 l -6.06,6.71 -17.93,-16.19 6,-6.7 c 1.45064,-1.599466 3.92002,-1.728964 5.53,-0.29 z M 78.51,36.64 c -52.34,-24.426667 -26.17,-12.213333 0,0 z M 11.15,0 H 92 c 1.462253,-0.00132187 2.910228,0.28759322 4.26,0.85 2.711363,1.1329192 4.86708,3.288637 6,6 0.84502,2.1905524 0.85,3.908392 0.85,6.15 -2.74209,0.511691 -5.169369,1.726588 -7.17,3.56 C 95.907192,12.758805 96.343598,7.9459124 92,7.94 H 11.15 C 10.731272,7.9365093 10.316204,8.0181621 9.93,8.18 9.136834,8.5069176 8.5069176,9.136834 8.18,9.93 8.0181621,10.316204 7.9365093,10.731272 7.94,11.15 v 58.47 c -0.00266,0.41865 0.078957,0.833554 0.24,1.22 0.5046261,1.211103 1.6879722,2 3,2 H 61 l -0.21,1.39 v 0.18 0 0.09 0.27 0 0.87 0.08 0.26 0.58 0 1.64 0 1.16 1.4 H 11.15 C 6.6398707,80.745888 2.5790708,78.025547 0.85,73.86 0.28891365,72.51683 -1.5605197e-6,71.075653 0,69.62 V 11.15 C -0.00132187,9.6877467 0.28759322,8.2397722 0.85,6.89 1.4174627,5.5395257 2.2390086,4.3106015 3.27,3.27 4.3124445,2.2365785 5.5451323,1.4147866 6.9,0.85 8.2462762,0.28761456 9.6909815,-0.0013265 11.15,0 Z M 93,73.46 c -4.54,1.66 -8.15,2.4 -12.69,4.06 -9.62,2.61 -9.43,4.81 -8.09,-4.45 L 75.1,57.31 v 0 L 94.83,35 112.76,51.18 93,73.47 Z M 78.17,60.07 89.94,70.69 81,74 c -7,2.56 -6.91,4 -5.32,-2.94 l 2.5,-11 z"
     id="path8"
     sodipodi:nodetypes="cccccccccccccccccccccccsccccccccccccccccccccccccccccccccccccccc"
     style="fill:#ffffff;fill-opacity:1" />
  <metadata
     id="metadata828">
    <rdf:RDF>
      <cc:Work
         rdf:about="">
        <dc:title>photo-editor</dc:title>
      </cc:Work>
    </rdf:RDF>
  </metadata>
  <path
     d="m 59.17,47.23 13,-22.53 c 0.385373,-0.67664 1.384659,-0.598382 1.66,0.13 l 4.68,11.81 -11.32,12.81 c -1.803952,1.81092 -2.930266,4.187125 -3.19,6.73 l -0.94,5.12 -0.34,1.86 H 19.27 c -0.513625,0 -0.93,-0.416375 -0.93,-0.93 v -4.6 c 0,-0.513625 0.416375,-0.93 0.93,-0.93 l 5.11,-0.25 5.52,-13.53 c 0.189618,-0.478584 0.735015,-0.708463 1.21,-0.51 0.267959,0.10418 0.46909,0.331383 0.54,0.61 l 2.68,9.38 h 7.29 l 7.24,-18.66 c 0.186046,-0.476741 0.722308,-0.71359 1.2,-0.53 0.18562,0.06774 0.341416,0.198754 0.44,0.37 z M 30.15,18.49 c 5.585187,-0.0095 9.384005,5.664062 7.247951,10.824582 C 35.261897,34.475103 28.564597,35.804056 24.62,31.85 v -0.06 c -3.014676,-3.047012 -3.014676,-7.952988 0,-11 l 0.06,-0.05 c 1.457644,-1.437205 3.422983,-2.242023 5.47,-2.24 z"
     style="fill-rule:evenodd;fill:#ffffff;fill-opacity:1"
     id="path893" />
</svg>
