<?xml version="1.0" encoding="UTF-8" standalone="no"?>
<svg
   shape-rendering="geometricPrecision"
   text-rendering="geometricPrecision"
   image-rendering="optimizeQuality"
   fill-rule="evenodd"
   clip-rule="evenodd"
   viewBox="0 0 512 410.87"
   version="1.1"
   id="svg4"
   sodipodi:docname="reply-arrow-outline-icon.svg"
   inkscape:version="1.1.2 (0a00cf5339, 2022-02-04)"
   xmlns:inkscape="http://www.inkscape.org/namespaces/inkscape"
   xmlns:sodipodi="http://sodipodi.sourceforge.net/DTD/sodipodi-0.dtd"
   xmlns="http://www.w3.org/2000/svg"
   xmlns:svg="http://www.w3.org/2000/svg">
  <defs
     id="defs8" />
  <sodipodi:namedview
     id="namedview6"
     pagecolor="#ffffff"
     bordercolor="#666666"
     borderopacity="1.0"
     inkscape:pageshadow="2"
     inkscape:pageopacity="0.0"
     inkscape:pagecheckerboard="0"
     showgrid="false"
     inkscape:zoom="2.1247597"
     inkscape:cx="256.02895"
     inkscape:cy="205.435"
     inkscape:window-width="2490"
     inkscape:window-height="1376"
     inkscape:window-x="2630"
     inkscape:window-y="27"
     inkscape:window-maximized="1"
     inkscape:current-layer="svg4" />
  <path
     fill-rule="nonzero"
     d="m28.94 205.45 169.28 165.24v-68.24c0-6.17 4.7-11.26 10.72-11.87 60.27-11.97 115.03-12.11 164.86 3.05 40.12 12.21 76.8 34.22 110.31 67.83-10.57-65.33-37.77-119.98-78.64-160.47-47.84-47.36-114.68-75.56-195.78-78.99-6.41-.25-11.43-5.53-11.43-11.89l-.04-69.89L28.94 205.45zM201.86 407.5 3.37 213.75c-4.58-4.71-4.48-12.25.23-16.83L201.22 4.04A11.87 11.87 0 0 1 210.16 0c6.58 0 11.93 5.35 11.93 11.94v86.93c82.19 5.79 150.41 35.99 200.16 85.25 52.41 51.9 84.08 124.76 89.73 212.34.22 3.73-1.3 7.51-4.43 10.02-5.13 4.12-12.62 3.31-16.74-1.82-36.96-45.99-78.09-74.33-123.91-88.27-43.54-13.25-91.69-13.7-144.81-4.11v86.69c-.03 2.99-1.15 5.99-3.4 8.3-4.59 4.71-12.13 4.81-16.83.23z"
     id="path2"
     style="fill:#ffffff;fill-opacity:1" />
</svg>
