<?xml version="1.0" encoding="UTF-8" standalone="no"?>
<svg
   version="1.1"
   id="Layer_1"
   x="0px"
   y="0px"
   viewBox="0 0 102.55 122.88"
   style="enable-background:new 0 0 102.55 122.88"
   xml:space="preserve"
   sodipodi:docname="text-file-line-icon.svg"
   inkscape:version="1.1.2 (0a00cf5339, 2022-02-04)"
   xmlns:inkscape="http://www.inkscape.org/namespaces/inkscape"
   xmlns:sodipodi="http://sodipodi.sourceforge.net/DTD/sodipodi-0.dtd"
   xmlns="http://www.w3.org/2000/svg"
   xmlns:svg="http://www.w3.org/2000/svg"><defs
     id="defs11" /><sodipodi:namedview
     id="namedview9"
     pagecolor="#ffffff"
     bordercolor="#666666"
     borderopacity="1.0"
     inkscape:pageshadow="2"
     inkscape:pageopacity="0.0"
     inkscape:pagecheckerboard="0"
     showgrid="false"
     inkscape:zoom="7.1044923"
     inkscape:cx="51.305566"
     inkscape:cy="61.439999"
     inkscape:window-width="2490"
     inkscape:window-height="1376"
     inkscape:window-x="2630"
     inkscape:window-y="27"
     inkscape:window-maximized="1"
     inkscape:current-layer="Layer_1" /><style
     type="text/css"
     id="style2">.st0{fill-rule:evenodd;clip-rule:evenodd;}</style><g
     id="g6"
     style="fill:#ffffff;fill-opacity:1"><path
       class="st0"
       d="M102.55,122.88H0V0h77.66l24.89,26.43V122.88L102.55,122.88z M96.61,116.45V29.96H73.93l0-24.53H6.03v111.03 H96.61L96.61,116.45z M62.05,31.87H15.63v-6.03h46.42V31.87L62.05,31.87z M87.33,49.99h-71.7v-6.06h71.7V49.99L87.33,49.99z M47.3,68.05H15.63v-6.03H47.3V68.05L47.3,68.05z M88.95,86.04H15.63v-6.03h73.33V86.04L88.95,86.04z M88.95,104.13H15.63v-6.06 h73.33V104.13L88.95,104.13z"
       id="path4"
       style="fill:#ffffff;fill-opacity:1" /></g></svg>
